<?xml version="1.0" standalone="no"?>
<!DOCTYPE svg PUBLIC "-//W3C//DTD SVG 20010904//EN"
 "http://www.w3.org/TR/2001/REC-SVG-20010904/DTD/svg10.dtd">
<svg version="1.0" xmlns="http://www.w3.org/2000/svg"
 width="364.000000pt" height="364.000000pt" viewBox="0 0 364.000000 364.000000"
 preserveAspectRatio="xMidYMid meet">
<metadata>
Created by potrace 1.14, written by Peter Selinger 2001-2017
</metadata>
<g transform="translate(0.000000,364.000000) scale(0.100000,-0.100000)"
fill="#000000" stroke="none">
<path d="M1924 2632 c-30 -3 -32 -7 -54 -80 -13 -42 -24 -81 -26 -87 -1 -5
-11 -37 -22 -70 -10 -33 -34 -107 -51 -165 -18 -58 -41 -130 -51 -160 -20 -60
-50 -156 -56 -180 -2 -8 -22 -73 -45 -145 -23 -71 -43 -138 -46 -147 -6 -19
-1 -20 92 -20 149 0 142 -1 156 40 7 20 14 42 15 48 1 6 11 40 23 75 42 132
125 394 127 404 1 6 29 98 63 205 89 280 89 280 82 280 -34 3 -183 4 -207 2z"/>
<path d="M1430 2491 c-36 -20 -101 -56 -145 -80 -107 -58 -189 -103 -255 -141
-30 -17 -67 -36 -82 -43 -31 -13 -30 -9 -32 -130 l-1 -88 43 -25 c24 -14 77
-43 118 -65 42 -22 157 -85 256 -140 99 -54 181 -99 182 -99 4 0 0 239 -4 243
-5 4 -63 36 -190 105 -107 58 -140 77 -140 82 0 3 26 19 58 36 163 87 239 129
257 141 17 12 19 25 20 128 1 74 -3 115 -10 114 -5 0 -39 -17 -75 -38z"/>
<path d="M2190 2412 l0 -118 43 -23 c23 -12 78 -42 122 -67 44 -24 99 -54 123
-66 23 -12 41 -26 39 -31 -2 -8 -45 -33 -257 -150 l-65 -36 -3 -120 c-1 -72 1
-121 7 -121 5 0 11 4 13 8 2 5 50 33 108 64 58 30 121 64 140 75 36 20 118 65
238 129 37 20 72 41 79 46 7 5 11 46 11 108 1 95 0 100 -23 112 -13 7 -102 56
-197 108 -95 52 -177 97 -183 99 -5 2 -18 10 -27 19 -10 8 -18 12 -18 9 0 -3
-30 12 -67 34 -37 21 -71 39 -75 39 -5 0 -8 -53 -8 -118z"/>
<path d="M1530 1410 l-25 -6 -2 -157 -1 -157 39 0 39 0 0 79 c0 57 4 82 15 91
26 22 35 0 35 -86 l0 -84 38 0 38 0 -1 100 c-1 79 -4 104 -17 117 -19 18 -72
20 -94 2 -12 -10 -14 -3 -14 44 0 59 -8 68 -50 57z"/>
<path d="M2675 1364 l1 -51 -28 8 c-16 4 -29 9 -31 10 -1 1 -12 -3 -25 -10
-59 -32 -81 -135 -42 -198 11 -18 23 -33 27 -34 5 0 19 -2 32 -5 13 -2 35 3
48 11 12 9 23 11 23 5 0 -5 16 -10 35 -10 l35 0 0 159 0 159 -38 4 -38 3 1
-51z m-8 -106 c11 -15 11 -87 0 -105 -11 -18 -44 -16 -51 3 -10 27 -7 89 6
102 15 15 33 15 45 0z"/>
<path d="M30 1238 l0 -148 40 0 40 0 0 150 0 150 -40 -2 -40 -1 0 -149z"/>
<path d="M1901 1371 c-10 -19 -81 -256 -81 -271 0 -5 17 -10 39 -10 35 0 39 3
45 30 5 27 9 30 46 30 22 0 41 -4 41 -10 1 -5 3 -14 4 -20 1 -5 3 -14 4 -20 1
-11 81 -14 81 -2 0 4 -18 70 -41 148 l-41 141 -45 0 c-30 0 -46 -5 -52 -16z
m64 -117 c5 -36 4 -42 -14 -47 -28 -7 -29 -3 -18 54 11 56 22 54 32 -7z"/>
<path d="M907 1363 c-4 -3 -7 -14 -7 -24 0 -9 -7 -19 -15 -23 -19 -7 -20 -42
-1 -49 9 -4 15 -28 18 -76 5 -86 19 -105 82 -105 25 -1 48 3 52 7 11 11 -14
59 -28 51 -20 -12 -33 21 -30 74 3 43 6 50 23 47 10 -2 19 -1 20 3 0 4 2 17 5
30 2 14 -1 22 -8 21 -29 -4 -38 2 -38 26 0 22 -4 25 -33 25 -19 0 -37 -3 -40
-7z"/>
<path d="M268 1316 c-23 -8 -42 -10 -52 -4 -9 5 -27 8 -39 6 -21 -3 -22 -7
-22 -115 l0 -113 37 0 38 0 0 79 c0 57 4 82 15 91 26 22 35 0 35 -86 l0 -84
39 0 40 0 0 85 c0 132 -21 165 -91 141z"/>
<path d="M504 1314 c-15 -8 -30 -11 -33 -7 -3 4 -21 9 -38 11 l-33 2 0 -115 0
-115 38 0 39 0 -1 76 c-2 74 8 104 35 104 11 0 11 -5 14 -90 2 -36 3 -71 4
-77 1 -8 16 -13 39 -13 l37 0 -2 82 c-2 115 -2 112 -15 131 -18 24 -50 28 -84
11z"/>
<path d="M715 1322 c-48 -10 -87 -72 -80 -128 7 -56 14 -71 41 -88 61 -41 152
-20 174 40 22 57 3 141 -38 163 -22 12 -71 19 -97 13z m53 -64 c13 -13 16 -75
6 -102 -8 -22 -41 -20 -54 3 -30 58 9 138 48 99z"/>
<path d="M1107 1310 c-65 -35 -75 -158 -17 -202 34 -25 93 -31 136 -13 31 13
33 16 22 34 -10 17 -19 19 -56 14 -32 -4 -46 -2 -53 8 -16 26 -9 29 62 29 l71
0 -6 40 c-3 22 -10 49 -16 60 -23 42 -92 57 -143 30z m71 -42 c16 -16 15 -35
-3 -42 -20 -7 -45 3 -45 18 0 13 20 36 30 36 3 0 11 -5 18 -12z"/>
<path d="M1380 1323 c-60 -17 -90 -56 -90 -117 0 -70 31 -109 95 -120 28 -5
95 9 95 20 0 3 -5 14 -11 25 -8 16 -17 19 -40 14 -42 -9 -59 9 -59 61 0 50 25
73 59 55 14 -8 23 -6 37 10 18 20 18 21 -1 35 -10 8 -24 14 -29 15 -6 0 -18 2
-26 3 -8 2 -22 1 -30 -1z"/>
<path d="M2180 1323 c-60 -17 -90 -56 -90 -117 0 -71 34 -112 99 -121 30 -3
91 11 91 22 0 2 -5 13 -11 24 -8 16 -17 18 -43 14 -39 -8 -59 12 -58 55 1 50
19 72 53 65 29 -7 59 7 59 26 0 19 -69 41 -100 32z"/>
<path d="M2357 1320 c-45 -8 -51 -13 -43 -38 6 -17 15 -20 54 -19 35 2 47 -2
50 -14 2 -13 -8 -17 -45 -22 -78 -9 -109 -72 -59 -122 18 -18 32 -23 61 -20
21 2 41 9 45 15 6 9 13 8 31 -4 28 -17 50 -8 49 20 -1 10 -3 42 -5 69 -1 28
-4 62 -4 77 -2 46 -62 72 -134 58z m61 -152 c-4 -30 -48 -39 -48 -10 0 24 8
32 32 32 14 0 19 -6 16 -22z"/>
<path d="M2865 1322 c-66 -14 -104 -125 -65 -189 29 -46 98 -63 157 -38 30 13
33 17 23 35 -9 17 -17 19 -50 14 -39 -6 -70 6 -70 27 0 5 32 9 70 9 l70 0 0
29 c0 79 -60 129 -135 113z m58 -72 c5 -20 -14 -29 -45 -22 -22 5 -23 16 -3
36 19 18 41 12 48 -14z"/>
<path d="M3155 1322 c-11 -2 -26 -9 -33 -15 -9 -7 -16 -7 -24 1 -7 7 -25 12
-40 12 l-28 0 0 -115 0 -115 40 0 40 0 0 78 c0 72 9 102 32 102 4 0 8 -40 8
-90 l0 -90 40 0 40 0 0 74 c0 83 6 106 26 106 15 0 17 -19 14 -122 l-1 -58 40
0 41 0 0 94 c0 79 -3 97 -20 119 -22 27 -44 28 -88 5 -16 -8 -26 -9 -30 -2
-10 14 -33 21 -57 16z"/>
<path d="M3373 1292 c10 -58 57 -197 67 -200 20 -7 10 -23 -24 -37 -27 -12
-33 -18 -29 -38 4 -22 8 -24 36 -17 48 11 60 19 79 44 15 21 88 242 88 266 0
5 -17 8 -37 7 -36 -2 -38 -4 -46 -47 -5 -25 -13 -63 -19 -85 l-11 -40 -16 85
-16 85 -39 2 c-36 2 -38 1 -33 -25z"/>
</g>
</svg>
